<?xml version="1.0" encoding="utf-8"?>
<!-- Generator: Adobe Illustrator 19.2.1, SVG Export Plug-In . SVG Version: 6.00 Build 0)  -->
<svg version="1.1" id="layer" xmlns="http://www.w3.org/2000/svg" xmlns:xlink="http://www.w3.org/1999/xlink" x="0px" y="0px"
	 viewBox="0 0 652 652" style="enable-background:new 0 0 652 652;" xml:space="preserve">
<style type="text/css">
	.st0{fill:#3164FA;}
	.st1{fill:#FFFFFF;}
</style>
<path class="st0" d="M450.4,284.7c10.9,0,17.7,3.1,24.2,8.6l-7,8.4c-4.9-4.2-9.7-6.7-17.7-6.7c-11.5,0-20.4,10.2-20.4,22.3l0,0.8
	c0.2,12.8,8.7,22.1,21.4,22.1c6,0,11.3-1.9,15.2-4.8v-11.8l10.7-9.8v26.7c-6.3,5.4-15.1,9.9-26.3,9.9c-19.7,0-32.7-14.2-32.7-32.7
	l0-0.8C418.2,299.5,431.5,284.7,450.4,284.7z M521.7,284.7c19.4,0,32.9,14.8,32.9,32.7l0,0.8c-0.3,17.5-13.9,32.3-33,32.3
	c-19.4,0-32.9-14.8-32.9-32.7l0-0.8C489,299.5,502.6,284.7,521.7,284.7z M242.5,285.3l27.7,64l-11.3,0l-21.8-50.6l-21.6,50.6
	l-11.1,0l27.7-64H242.5z M385.4,285.3l27.7,64l-11.3,0l-21.8-50.6l-21.6,50.6l-11.1,0l27.7-64H385.4z M576.8,285.8l33.8,43.9v-43.9
	h10.9v63.5h-9.3l-34.8-45.2v45.2h-10.9v-63.5H576.8z M521.6,295.1c-12.5,0-21.3,10-21.3,22.3l0,0.7c0.3,12.1,9,22,21.4,22
	c12.5,0,21.3-10,21.3-22.3l0-0.7C542.7,304.9,534,295.1,521.6,295.1z M311.8,284.7c7.9,0,14.2,2.4,18.2,6.5
	c3.3,3.6,5.2,8.3,5.2,13.9l0,0.5c-0.1,10.2-6.1,16.4-14.4,19l-0.6,0.2l17.1,24.4h-13.2l-15.5-22.5l-8.1,0l5.7-10.1l4.8,0
	c7.8,0,12.8-4,13-10.3l0-0.4l0-0.4c-0.1-6.9-4.9-10.5-13.1-10.5h-16.2l0,20l0,0v14.4l0,0l0,19.9h-11.1v-64.6H311.8z"/>
<path class="st0" d="M80.7,254.1l-6.8-7.2c11.8-1.5,42.8,0.4,72.9,20.3c0.4,2.8,0.3,5.5,0.3,5.5l2.2,1.2l0,0l0,0l0,0
	c1.2,2.1,2.5,5.3,3.3,9.1c1,4.5,1.2,9.7,0.1,14.7c-1.1,5-3.3,9.2-5.4,12.2c-1.6,2.2-3.1,3.8-4,4.7c-3.8,0.1-11,2.7-13,11.6
	c-6.2,3.5-15.8,7-28.6,7c-12.2,0-24.6-3.5-34-10.4c-9.3-6.8-15.6-16.9-15.6-30.2c0-10.6,4.7-18.8,10.7-24.9c6-6.1,14.3-11,19-12.7
	L80.7,254.1z M73.7,256.1c-29.6,6-52.2,32.7-52.2,64.9c0,40.8,34.4,74.5,76.9,74.5c31.7,0,58.1-19.4,71.9-45.4
	c-18.4,4.4-40.3-3.4-40.4-20.3c-6.6,3.4-16.1,6.4-28.2,6.4c-12.7,0-25.8-3.7-35.7-11C56,318,49.2,307,49.2,292.7
	c0-11.5,5.2-20.5,11.6-27C64.5,262,69.6,258.4,73.7,256.1z M155.6,282.4c-0.4-1.9-0.9-3.6-1.5-5.3c8,6,14.2,14.1,13.7,25.4
	c-0.7,16.3-10.6,22.8-16.9,23.8c3-5.1,0.5-8.3-0.5-9.4c-0.5-0.5-1.5-1.4-3.2-1.9c0.9-0.9,1.8-2.1,2.7-3.4c2.3-3.3,4.6-7.8,5.9-13.3
	C157,292.9,156.6,287.2,155.6,282.4z"/>
<path class="st1" d="M133.5,271.4c-2.4,2.6-4.6,3.8-5.2,4.2c-13.8-3.1-18.8-10.6-18.8-10.6c13-0.1,24.8,3.2,33.4,8.7
	C142.9,273.7,138.2,272.1,133.5,271.4z"/>
</svg>
